<svg width="107" height="17" viewBox="0 0 107 17" fill="none" xmlns="http://www.w3.org/2000/svg">
<path fill-rule="evenodd" clip-rule="evenodd" d="M7.15232 1.07822C8.2558 2.10131 8.67682 3.61455 7.98622 4.35941C7.29562 5.10427 6.24534 5.2534 4.65144 3.7756C3.50029 2.70831 2.90813 1.47527 3.81754 0.494405C4.50814 -0.250455 6.00118 0.0109278 7.15232 1.07822ZM13.1332 1.50975C14.1846 2.68264 14.3973 4.20688 13.6082 4.91426C12.8192 5.62163 11.3271 5.24426 10.2757 4.07138C9.22424 2.8985 9.01155 1.37425 9.80063 0.666872C10.9209 -0.541362 12.0817 0.336868 13.1332 1.50975ZM5.97183 13.6638C6.46352 12.6612 5.45002 11.2007 4.0406 10.5095C2.63117 9.81828 1.08537 9.58933 0.598305 11.0733C0.106607 12.0759 0.850574 13.449 2.26 14.1403C3.66943 14.8315 5.48013 14.6664 5.97183 13.6638ZM3.97195 4.96326C5.25467 5.86818 5.79066 7.31599 5.16911 8.19703C4.54756 9.07808 3.00385 9.05872 1.72113 8.15381C0.438403 7.24889 -0.392364 5.71136 0.188807 4.65417C0.520909 4.05006 2.68922 4.05835 3.97195 4.96326ZM7.75264 7.56267C9.11676 6.09138 12.7236 7.6114 12.7236 7.6114C12.7236 7.6114 13.9913 7.19077 15.481 8.57197C16.9707 9.95317 16.6935 12.4285 14.8728 14.3922C12.4767 16.7307 10.6048 16.8192 9.11512 15.438C7.97856 14.3843 8.12884 12.2901 8.12884 12.2901C8.12884 12.2901 6.5022 8.91136 7.75264 7.56267Z" fill="#FFB800"/>
<path d="M98.4792 10.7056C98.4792 10.1784 98.5764 9.65114 98.7706 9.12393C98.9648 8.58285 99.2215 8.09032 99.5406 7.64635C99.8597 7.20239 100.366 6.84167 101.06 6.56419C101.753 6.27283 102.371 6.12716 102.912 6.12716C103.467 6.12716 104.029 6.20346 104.598 6.35608C105.18 6.50869 105.583 6.74455 105.805 7.06365C106.318 7.78509 106.575 8.49267 106.575 9.18636C106.575 9.56096 106.491 9.88006 106.325 10.1437C106.172 10.4073 105.95 10.6917 105.659 10.9969C105.423 11.2466 105.049 11.4131 104.535 11.4964C104.036 11.5796 103.536 11.6212 103.037 11.6212C102.718 11.6212 102.329 11.5935 101.871 11.538C101.414 11.4686 100.97 11.3854 100.54 11.2883C100.567 11.5657 100.637 11.8363 100.748 12.0999C100.859 12.3635 100.99 12.5647 101.143 12.7034C101.421 12.967 101.705 13.1335 101.996 13.2029C102.302 13.2722 102.69 13.3069 103.162 13.3069C103.661 13.3069 104.126 13.2237 104.556 13.0572C104.903 12.9323 105.187 12.8699 105.409 12.8699C105.673 12.8699 105.874 12.9531 106.013 13.1196C106.152 13.2722 106.221 13.4734 106.221 13.7231C106.221 14.07 106.02 14.3544 105.617 14.5764C105.215 14.7984 104.75 14.9649 104.223 15.0759C103.71 15.173 103.294 15.2215 102.974 15.2215C102.322 15.2215 101.691 15.1036 101.081 14.8677C100.47 14.6319 99.9638 14.2989 99.5614 13.8688C99.2284 13.4803 98.9648 13.0156 98.7706 12.4745C98.5764 11.9195 98.4792 11.3299 98.4792 10.7056ZM103.016 7.89609C102.711 7.89609 102.406 7.95852 102.1 8.08338C101.795 8.19438 101.545 8.35393 101.351 8.56204C101.101 8.82564 100.928 9.04069 100.831 9.20718C100.748 9.35979 100.692 9.57483 100.664 9.85231C101.011 9.9633 101.733 10.0188 102.829 10.0188C103.425 10.0188 103.883 9.92862 104.202 9.74826C104.535 9.5679 104.702 9.33204 104.702 9.04069C104.702 8.74933 104.521 8.48573 104.161 8.24987C103.8 8.01401 103.418 7.89609 103.016 7.89609Z" fill="#FFB800"/>
<path d="M95.0827 11.8918C95.0827 12.419 95.159 12.8283 95.3116 13.1196C95.4781 13.3971 95.6862 13.5358 95.9359 13.5358C96.0747 13.5358 96.2065 13.5289 96.3313 13.515C96.4562 13.4873 96.5811 13.4734 96.7059 13.4734C96.8447 13.4734 96.9626 13.5428 97.0597 13.6815C97.1707 13.8203 97.2262 13.9729 97.2262 14.1394C97.2262 14.4723 97.0667 14.7359 96.7476 14.9302C96.4423 15.1105 96.0261 15.2007 95.4989 15.2007C95.1243 15.2007 94.7428 15.0897 94.3543 14.8677C93.9797 14.6319 93.6675 14.2712 93.4178 13.7856C93.1681 13.2861 93.0432 12.6687 93.0432 11.9334C93.0432 10.3518 93.071 9.01294 93.1265 7.9169C93.1958 6.61275 93.2305 4.96869 93.2305 2.98471C93.2305 2.36039 93.2652 1.92336 93.3346 1.67363C93.4178 1.47939 93.5496 1.33372 93.73 1.2366C93.9242 1.12561 94.1254 1.07011 94.3335 1.07011C94.5416 1.07011 94.722 1.1048 94.8746 1.17417C95.0411 1.24353 95.152 1.35453 95.2075 1.50714C95.263 1.67363 95.2977 1.84011 95.3116 2.0066C95.3393 2.15921 95.3532 2.3812 95.3532 2.67255C95.3532 3.24138 95.3324 3.7894 95.2908 4.31661C95.263 4.95481 95.2492 5.41959 95.2492 5.71094C95.1382 8.15276 95.0827 10.213 95.0827 11.8918Z" fill="#FFB800"/>
<path d="M82.2751 7.95852C82.2751 6.70987 82.2542 5.71788 82.2126 4.98256C82.1849 4.56634 82.1571 4.25418 82.1294 4.04607C82.06 2.9639 82.0253 2.29102 82.0253 2.02741C82.0253 1.38921 82.3444 1.07011 82.9826 1.07011C83.385 1.07011 83.6555 1.17417 83.7943 1.38227C83.9469 1.59038 84.0509 1.93029 84.1064 2.40201C84.2452 3.35931 84.3145 4.4831 84.3145 5.77338C84.3145 6.35608 84.2937 6.93879 84.2521 7.52149C84.5018 7.13302 84.8972 6.81392 85.4383 6.56419C85.9933 6.31446 86.4997 6.1896 86.9575 6.1896C87.5818 6.1896 88.1021 6.3214 88.5183 6.585C88.9484 6.83473 89.3716 7.20239 89.7878 7.68798C90.0237 8.03483 90.2318 8.45105 90.4121 8.93664C90.6064 9.40835 90.7035 9.81763 90.7035 10.1645C90.7035 10.7611 90.6064 11.3923 90.4121 12.0583C90.2318 12.7103 89.989 13.2167 89.6837 13.5775C89.2953 14.0492 88.8513 14.403 88.3518 14.6388C87.8663 14.8747 87.2835 14.9926 86.6037 14.9926C85.5493 14.9926 84.7169 14.5625 84.1064 13.7023C84.037 14.0492 83.8844 14.396 83.6486 14.7429C83.4127 15.0759 83.1422 15.2423 82.8369 15.2423C82.5872 15.2423 82.3791 15.1799 82.2126 15.055C82.0461 14.9163 81.9629 14.7151 81.9629 14.4515C81.9629 14.3544 81.9906 14.1116 82.0461 13.7231C82.1849 12.8907 82.2542 12.1068 82.2542 11.3715L82.2751 7.95852ZM86.2708 13.2653C86.5899 13.2653 86.8743 13.2237 87.124 13.1404C87.3737 13.0433 87.6512 12.8907 87.9564 12.6826C88.1923 12.5439 88.3657 12.2803 88.4767 11.8918C88.6016 11.5033 88.664 11.0732 88.664 10.6015C88.664 9.88006 88.4628 9.23493 88.0605 8.66609C87.9079 8.49961 87.7067 8.36087 87.457 8.24988C87.2072 8.13888 86.9575 8.08339 86.7078 8.08339C86.1112 8.08339 85.5909 8.24988 85.147 8.58285C84.7169 8.91582 84.4741 9.3806 84.4186 9.97718C84.4186 10.1575 84.4116 10.3032 84.3978 10.4142L84.3561 12.0583C84.5226 12.3774 84.7932 12.6618 85.1678 12.9115C85.5424 13.1474 85.91 13.2653 86.2708 13.2653Z" fill="#FFB800"/>
<path d="M80.5153 14.1185C80.5153 14.4238 80.3488 14.6804 80.0158 14.8886C79.6828 15.0967 79.3776 15.2007 79.1001 15.2007C78.5868 15.2007 78.1706 15.1383 77.8515 15.0134C77.5462 14.8747 77.2549 14.6249 76.9774 14.2642C76.6306 14.5833 76.145 14.8261 75.5207 14.9926C74.8963 15.1452 74.3206 15.2215 73.7933 15.2215C72.9332 15.2215 72.2187 14.9926 71.6498 14.5348C71.0949 14.0631 70.8174 13.3763 70.8174 12.4745C70.8174 12.086 70.9353 11.6975 71.1712 11.3091C71.407 10.9067 71.6984 10.5876 72.0452 10.3518C72.4198 10.102 72.843 9.93556 73.3147 9.85231C73.7864 9.75519 74.3344 9.70664 74.9588 9.70664C75.2501 9.70664 75.597 9.76213 75.9993 9.87312C76.4016 9.98412 76.7207 10.102 76.9566 10.2269V9.89393C76.9566 9.14474 76.7693 8.63141 76.3947 8.35393C76.034 8.06257 75.4513 7.9169 74.6466 7.9169C74.3969 7.9169 74.1679 7.95852 73.9598 8.04176C73.7656 8.11113 73.5367 8.21519 73.2731 8.35393C73.0233 8.49267 72.7875 8.56204 72.5655 8.56204C72.3713 8.56204 72.184 8.48573 72.0036 8.33312C71.8232 8.16663 71.7331 7.9932 71.7331 7.81284C71.7331 7.23014 72.0938 6.80698 72.8152 6.54338C73.5506 6.2659 74.2997 6.12716 75.0628 6.12716C75.4513 6.12716 75.8952 6.2104 76.3947 6.37689C76.8942 6.5295 77.3173 6.74455 77.6642 7.02203C78.0804 7.36888 78.3995 7.78509 78.6215 8.27068C78.8573 8.75627 78.9753 9.28348 78.9753 9.85231C78.9753 10.0327 78.9614 10.3032 78.9336 10.6639C78.9059 11.0524 78.892 11.3854 78.892 11.6629L78.8712 12.2248C78.8435 12.53 78.8296 12.7728 78.8296 12.9531C78.8296 13.1196 78.8851 13.2653 78.9961 13.3902C79.1209 13.5012 79.2666 13.5567 79.4331 13.5567L80.0158 13.5358C80.1684 13.5358 80.2864 13.5983 80.3696 13.7231C80.4667 13.8341 80.5153 13.9659 80.5153 14.1185ZM73.7933 13.5775C74.3899 13.5775 74.8894 13.515 75.2917 13.3902C75.6941 13.2653 76.1797 13.0364 76.7485 12.7034C76.804 12.4676 76.8387 12.1554 76.8525 11.7669C76.0895 11.4062 75.4582 11.2258 74.9588 11.2258C74.487 11.2258 74.1055 11.2466 73.8142 11.2883C73.5228 11.316 73.2592 11.4339 73.0233 11.6421C72.7875 11.8502 72.6696 12.1831 72.6696 12.641C72.6696 12.9046 72.7944 13.1266 73.0442 13.3069C73.3078 13.4873 73.5575 13.5775 73.7933 13.5775Z" fill="#FFB800"/>
<path d="M67.5043 11.8918C67.5043 12.419 67.5806 12.8283 67.7332 13.1196C67.8997 13.3971 68.1078 13.5358 68.3576 13.5358C68.4963 13.5358 68.6281 13.5289 68.753 13.515C68.8778 13.4873 69.0027 13.4734 69.1276 13.4734C69.2663 13.4734 69.3842 13.5428 69.4813 13.6815C69.5923 13.8203 69.6478 13.9729 69.6478 14.1394C69.6478 14.4723 69.4883 14.7359 69.1692 14.9302C68.864 15.1105 68.4477 15.2007 67.9205 15.2007C67.5459 15.2007 67.1644 15.0897 66.7759 14.8677C66.4013 14.6319 66.0892 14.2712 65.8394 13.7856C65.5897 13.2861 65.4648 12.6687 65.4648 11.9334C65.4648 10.3518 65.4926 9.01294 65.5481 7.9169C65.6175 6.61275 65.6521 4.96869 65.6521 2.98471C65.6521 2.36039 65.6868 1.92336 65.7562 1.67363C65.8394 1.47939 65.9712 1.33372 66.1516 1.2366C66.3458 1.12561 66.547 1.07011 66.7551 1.07011C66.9632 1.07011 67.1436 1.1048 67.2962 1.17417C67.4627 1.24353 67.5737 1.35453 67.6292 1.50714C67.6847 1.67363 67.7194 1.84011 67.7332 2.0066C67.761 2.15921 67.7749 2.3812 67.7749 2.67255C67.7749 3.24138 67.754 3.7894 67.7124 4.31661C67.6847 4.95481 67.6708 5.41959 67.6708 5.71094C67.5598 8.15276 67.5043 10.213 67.5043 11.8918Z" fill="#FFB800"/>
<path d="M60.9101 1.75687C61.3957 1.79849 61.8189 1.93029 62.1796 2.15227C62.5403 2.36038 62.7207 2.67948 62.7207 3.10958C62.7207 3.42868 62.5681 3.68534 62.2629 3.87958C61.9715 4.05994 61.6177 4.15012 61.2015 4.15012C60.7992 4.15012 60.5217 4.04607 60.3691 3.83796C60.2164 3.62985 60.1401 3.4148 60.1401 3.19282C60.1401 2.7766 60.1818 2.42975 60.265 2.15227C60.3621 1.87479 60.5772 1.74299 60.9101 1.75687ZM62.575 10.9761V11.5796C62.575 12.1207 62.5889 12.634 62.6166 13.1196C62.6583 13.5913 62.7068 14.07 62.7623 14.5556C62.7623 14.7221 62.6652 14.8747 62.471 15.0134C62.2767 15.1383 62.0964 15.2007 61.9299 15.2007C61.6663 15.2007 61.3957 15.1522 61.1183 15.055C60.8546 14.944 60.6951 14.8122 60.6396 14.6596C60.5564 14.2157 60.5147 13.8203 60.5147 13.4734C60.5147 12.3357 60.48 11.0593 60.4107 9.6442C60.3552 8.39555 60.3274 7.52149 60.3274 7.02203C60.3274 6.7723 60.4523 6.55725 60.702 6.37689C60.9518 6.19653 61.2154 6.10635 61.4928 6.10635C61.8952 6.10635 62.1727 6.19653 62.3253 6.37689C62.4918 6.55725 62.575 6.84167 62.575 7.23014V10.9761Z" fill="#FFB800"/>
<path d="M58.4652 14.1185C58.4652 14.4238 58.2987 14.6804 57.9657 14.8886C57.6466 15.0967 57.3483 15.2007 57.0708 15.2007C56.5436 15.2007 56.1205 15.1383 55.8014 15.0134C55.4961 14.8747 55.2117 14.6249 54.9481 14.2642C54.5874 14.5833 54.0949 14.8261 53.4705 14.9926C52.8462 15.1452 52.2704 15.2215 51.7432 15.2215C50.8831 15.2215 50.1755 14.9926 49.6205 14.5348C49.0656 14.0631 48.7881 13.3763 48.7881 12.4745C48.7881 12.086 48.8921 11.7322 49.1003 11.4131C49.3084 11.0802 49.5928 10.7888 49.9535 10.5391C50.3558 10.2755 50.8137 10.0743 51.327 9.93556C51.8404 9.78294 52.3745 9.70664 52.9295 9.70664C53.2208 9.70664 53.5677 9.76213 53.97 9.87312C54.3723 9.98412 54.6845 10.102 54.9065 10.2269V9.89393C54.9065 9.14474 54.7261 8.63141 54.3654 8.35393C54.0047 8.06257 53.422 7.9169 52.6173 7.9169C52.3814 7.9169 52.1456 7.96546 51.9097 8.06257C51.6877 8.15969 51.4311 8.29149 51.1397 8.45798C50.7512 8.66609 50.3836 8.77015 50.0367 8.77015C49.9119 8.77015 49.7939 8.6869 49.683 8.52041C49.572 8.34005 49.5165 8.1805 49.5165 8.04176C49.5165 7.63942 49.7038 7.29257 50.0784 7.00122C50.4668 6.70986 50.9247 6.49482 51.4519 6.35608C51.9791 6.20346 52.4508 6.12716 52.867 6.12716C53.2832 6.12716 53.7619 6.2104 54.303 6.37689C54.8441 6.5295 55.288 6.74455 55.6349 7.02203C56.0511 7.38275 56.3702 7.80591 56.5922 8.29149C56.828 8.76321 56.946 9.28348 56.946 9.85231C56.946 10.0327 56.9321 10.3032 56.9043 10.6639C56.8766 11.0524 56.8627 11.3854 56.8627 11.6629C56.8627 11.7877 56.8488 11.975 56.8211 12.2248C56.7934 12.53 56.7795 12.7728 56.7795 12.9531C56.7795 13.1196 56.8419 13.2653 56.9668 13.3902C57.0916 13.5012 57.2373 13.5567 57.4038 13.5567L57.9865 13.5358C58.1391 13.5358 58.2571 13.5913 58.3403 13.7023C58.4235 13.8133 58.4652 13.9521 58.4652 14.1185ZM51.764 13.5775C52.3606 13.5775 52.8601 13.515 53.2624 13.3902C53.6648 13.2653 54.1504 13.0364 54.7192 12.7034C54.7747 12.4676 54.8094 12.1554 54.8233 11.7669C54.0602 11.4062 53.4289 11.2258 52.9295 11.2258C52.3606 11.2258 51.8542 11.3299 51.4103 11.538C50.9663 11.7461 50.7443 12.1138 50.7443 12.641C50.7443 12.9046 50.8553 13.1266 51.0773 13.3069C51.2993 13.4873 51.5282 13.5775 51.764 13.5775Z" fill="#FFB800"/>
<path d="M44.2928 9.76907C44.3344 9.65808 44.4801 9.25573 44.7298 8.56204C44.9934 7.86834 45.2362 7.34113 45.4582 6.98041C45.8189 6.41158 46.138 6.12716 46.4155 6.12716C46.804 6.12716 47.1022 6.20346 47.3104 6.35608C47.5185 6.49482 47.6225 6.69599 47.6225 6.95959C47.6225 7.08446 47.567 7.25789 47.456 7.47987C47.3589 7.70185 47.3034 7.83365 47.2895 7.87528C46.7346 9.09618 46.2351 10.4073 45.7912 11.8085L45.3541 13.4318C45.1876 13.959 44.9032 14.3891 44.5009 14.7221C44.0985 15.0412 43.6268 15.2007 43.0857 15.2007C42.6002 15.2007 42.1492 14.9787 41.733 14.5348C41.4833 14.1463 41.2197 13.6538 40.9422 13.0572C40.6786 12.4606 40.4497 11.8779 40.2555 11.3091L39.5271 9.12393C39.3745 8.69384 39.2496 8.32618 39.1525 8.02095C39.0692 7.71573 39.0276 7.43825 39.0276 7.18852C39.0137 6.89716 39.097 6.66131 39.2773 6.48094C39.4577 6.30058 39.7074 6.2104 40.0265 6.2104C40.3873 6.2104 40.6439 6.28671 40.7965 6.43932C40.9492 6.57806 41.0879 6.80005 41.2128 7.10527C41.2683 7.42437 41.4209 8.07645 41.6706 9.0615L41.8163 9.6442C41.9411 10.1159 42.1007 10.5946 42.2949 11.0802C42.4892 11.5657 42.6834 12.0305 42.8776 12.4745C42.8499 12.4051 42.947 12.634 43.169 13.1612C43.3077 12.7589 43.4673 12.2664 43.6476 11.6837L44.2928 9.76907Z" fill="#FFB800"/>
<path d="M36.3227 14.8053C36.1423 14.5695 35.9897 14.3128 35.8648 14.0353C35.74 13.744 35.6082 13.3971 35.4694 12.9948C35.4417 12.9254 35.3584 12.7173 35.2197 12.3704C35.0948 12.0236 34.9491 11.7253 34.7827 11.4756C33.9086 11.6004 33.1941 11.6629 32.6391 11.6629C32.3339 11.6629 31.994 11.6559 31.6194 11.6421C31.2587 11.6143 30.9881 11.6004 30.8078 11.6004C30.1141 11.5449 29.5591 11.5172 29.1429 11.5172C28.9764 11.7392 28.8307 11.975 28.7059 12.2248C28.5949 12.4745 28.4492 12.8491 28.2688 13.3485C28.0191 14.07 27.8041 14.5833 27.6237 14.8886C27.4988 15.0967 27.256 15.2007 26.8953 15.2007C26.5901 15.2007 26.3057 15.1383 26.0421 15.0134C25.7923 14.8747 25.6675 14.6874 25.6675 14.4515C25.7785 13.9243 25.9519 13.3694 26.1878 12.7867C26.4375 12.1901 26.7913 11.3993 27.2491 10.4142L28.0815 8.37474C28.5394 7.20933 28.9556 6.2104 29.3302 5.37797C29.7187 4.54553 30.2251 3.56048 30.8494 2.42282C30.9326 2.25633 31.0714 2.11759 31.2656 2.0066C31.4599 1.88173 31.6749 1.8193 31.9108 1.8193C32.1744 1.8193 32.3617 1.84011 32.4726 1.88173C32.5975 1.90948 32.6946 1.96498 32.764 2.04822C32.8334 2.11759 32.9374 2.2702 33.0762 2.50606C33.5479 3.24138 33.9502 3.99751 34.2832 4.77445C34.63 5.55139 35.0671 6.62662 35.5943 8.00014L36.0313 9.10312C36.4198 10.102 36.7528 10.9414 37.0302 11.6212C37.3216 12.2872 37.6407 12.8976 37.9875 13.4526C38.2095 13.8133 38.3205 14.0631 38.3205 14.2018C38.3205 14.5348 38.2165 14.7914 38.0084 14.9718C37.8141 15.1383 37.5575 15.2215 37.2383 15.2215C36.836 15.2215 36.5308 15.0828 36.3227 14.8053ZM34.1791 9.76907C33.9572 9.29736 33.6381 8.47879 33.2218 7.31338C32.7918 6.06473 32.3617 5.07274 31.9316 4.33742C31.668 5.00337 31.2795 5.86355 30.7662 6.91797C30.4193 7.57005 30.0239 8.51348 29.5799 9.74826C30.4679 9.85925 31.4252 9.91475 32.4518 9.91475C33.1872 9.91475 33.7629 9.86619 34.1791 9.76907Z" fill="#FFB800"/>
</svg>
