<svg width="29" height="24" viewBox="0 0 29 24" fill="none" xmlns="http://www.w3.org/2000/svg">
<path d="M0.831829 11.4216C3.69586 9.84397 6.89291 8.5273 9.88007 7.20389C15.0191 5.03625 20.1786 2.90618 25.3902 0.923109C26.4042 0.585213 28.2261 0.254769 28.4047 1.75744C28.3069 3.88444 27.9045 5.999 27.6285 8.11355C26.9279 12.7637 26.1182 17.3978 25.3285 22.0326C25.0565 23.5764 23.1225 24.3756 21.8851 23.3877C18.9112 21.3789 15.9144 19.3897 12.9785 17.3343C12.0168 16.3571 12.9086 14.9537 13.7675 14.2559C16.2169 11.842 18.8145 9.79119 21.1359 7.25258C21.7621 5.74042 19.9119 7.01483 19.3016 7.4053C15.9484 9.71606 12.6773 12.1679 9.1419 14.1987C7.33605 15.1928 5.2313 14.3433 3.42626 13.7886C1.80781 13.1185 -0.563813 12.4434 0.831666 11.4217L0.831829 11.4216Z" fill="white"/>
</svg>
