<svg width="33" height="34" viewBox="0 0 33 34" fill="none" xmlns="http://www.w3.org/2000/svg">
<path fill-rule="evenodd" clip-rule="evenodd" d="M2.79657 18.5861C2.2681 19.1146 2.2681 19.9714 2.79657 20.4999L12.9399 30.6432C13.4684 31.1716 14.3252 31.1716 14.8537 30.6432L30.6176 14.8793C31.146 14.3508 31.146 13.494 30.6176 12.9655L20.4742 2.82218C19.9458 2.29371 19.0889 2.29371 18.5605 2.82218L2.79657 18.5861ZM2.08947 21.207C1.17047 20.288 1.17047 18.798 2.08947 17.879L17.8534 2.11508C18.7724 1.19608 20.2624 1.19608 21.1814 2.11508L31.3247 12.2584C32.2437 13.1774 32.2437 14.6674 31.3247 15.5864L15.5608 31.3503C14.6418 32.2693 13.1518 32.2693 12.2328 31.3503L2.08947 21.207Z" fill="#818181"/>
<path fill-rule="evenodd" clip-rule="evenodd" d="M18.9174 16.6515L19.5745 1.69286L20.5735 1.73675L19.9164 16.6966L19.9163 16.6978C19.8348 18.4556 18.43 19.8603 16.6722 19.9419L16.671 19.9419L1.71116 20.5991L1.66727 19.6001L16.6259 18.943C16.6262 18.943 16.6264 18.9429 16.6267 18.9429C17.868 18.885 18.8594 17.8936 18.9173 16.6523C18.9174 16.652 18.9174 16.6517 18.9174 16.6515Z" fill="#818181"/>
<path fill-rule="evenodd" clip-rule="evenodd" d="M15.7739 19.5724L15.0667 31.5933L14.0685 31.5345L14.7756 19.5137L15.7739 19.5724Z" fill="#818181"/>
<path fill-rule="evenodd" clip-rule="evenodd" d="M19.488 14.8012L31.5088 14.0941L31.5676 15.0924L19.5467 15.7995L19.488 14.8012Z" fill="#818181"/>
</svg>
