<svg width="36" height="37" viewBox="0 0 36 37" fill="none" xmlns="http://www.w3.org/2000/svg">
<path d="M8.42158 27.7678C8.9766 28.3036 9.86084 28.2879 10.3966 27.7329C10.9323 27.1779 10.9167 26.2937 10.3617 25.7579C9.80668 25.2222 8.92244 25.2378 8.38669 25.7928C7.85094 26.3478 7.86656 27.2321 8.42158 27.7678Z" fill="#818181"/>
<path fill-rule="evenodd" clip-rule="evenodd" d="M23.8206 3.09988C22.8561 2.16879 21.3193 2.19594 20.3882 3.16051L3.09988 21.0706C2.16879 22.0352 2.19594 23.5719 3.16052 24.503L11.8701 32.9102C12.8347 33.8413 14.3714 33.8142 15.3025 32.8496L32.5908 14.9395C33.5219 13.9749 33.4948 12.4382 32.5302 11.5071L23.8206 3.09988ZM19.6687 2.466C20.9834 1.10407 23.1532 1.06574 24.5151 2.38039L33.2247 10.7876C34.5866 12.1022 34.625 14.2721 33.3103 15.634L16.022 33.5441C14.7073 34.9061 12.5375 34.9444 11.1756 33.6297L2.46601 25.2225C1.10407 23.9079 1.06574 21.7381 2.3804 20.3761L19.6687 2.466Z" fill="#818181"/>
<path fill-rule="evenodd" clip-rule="evenodd" d="M30.3399 17.9913L17.4178 5.51783L18.1123 4.79834L31.0344 17.2718L30.3399 17.9913Z" fill="#818181"/>
<path fill-rule="evenodd" clip-rule="evenodd" d="M24.0664 6.79968C24.2582 6.601 24.5748 6.59541 24.7734 6.7872L28.807 10.6807C29.0057 10.8725 29.0113 11.189 28.8195 11.3877C28.6277 11.5864 28.3112 11.592 28.1125 11.4002L24.0789 7.50668C23.8803 7.3149 23.8747 6.99836 24.0664 6.79968Z" fill="#818181"/>
<path fill-rule="evenodd" clip-rule="evenodd" d="M17.8088 30.9732L4.88667 18.4998L5.58118 17.7803L18.5033 30.2538L17.8088 30.9732Z" fill="#818181"/>
</svg>
