<svg width="30" height="31" viewBox="0 0 30 31" fill="none" xmlns="http://www.w3.org/2000/svg">
<path fill-rule="evenodd" clip-rule="evenodd" d="M15.0999 29.8544H15.0939C12.6556 29.8535 10.2598 29.2418 8.13191 28.0811L0.408997 30.107L2.47578 22.5578C1.20086 20.3484 0.530067 17.8422 0.531088 15.2746C0.534355 7.24205 7.06973 0.707031 15.0997 0.707031C18.9969 0.708716 22.6548 2.22588 25.4053 4.97968C28.1559 7.73327 29.6698 11.3935 29.6682 15.2861C29.6651 23.3167 23.1322 29.8512 15.0999 29.8544ZM8.49017 25.4431L8.93229 25.7055C10.7914 26.8087 12.9225 27.3926 15.0954 27.3934H15.1003C21.7742 27.3934 27.2061 21.9613 27.2088 15.2846C27.2101 12.0491 25.9518 9.00683 23.6657 6.71802C21.3795 4.42921 18.3393 3.16818 15.105 3.16705C8.42586 3.16705 2.9939 8.5986 2.99125 15.2748C2.99033 17.5627 3.63049 19.791 4.84253 21.7189L5.13051 22.177L3.90724 26.6453L8.49017 25.4431ZM21.9412 18.423C22.1951 18.5457 22.3666 18.6286 22.4398 18.7508C22.5308 18.9026 22.5308 19.6314 22.2276 20.4818C21.9241 21.3321 20.4698 22.1081 19.7704 22.2126C19.1434 22.3063 18.3497 22.3454 17.4777 22.0684C16.949 21.9007 16.271 21.6767 15.4025 21.3015C11.99 19.8281 9.6837 16.5205 9.2478 15.8954C9.21728 15.8516 9.19594 15.821 9.184 15.8051L9.18114 15.8012C8.98851 15.5441 7.69766 13.8219 7.69766 12.0394C7.69766 10.3627 8.52127 9.48386 8.90041 9.07931C8.92644 9.05154 8.95033 9.02602 8.97166 9.00274C9.30538 8.63831 9.69972 8.54715 9.94238 8.54715C10.185 8.54715 10.428 8.54939 10.6401 8.56001C10.6662 8.56134 10.6935 8.56123 10.7216 8.56103C10.9337 8.5598 11.1982 8.55827 11.4591 9.18496C11.5595 9.42608 11.7064 9.78368 11.8612 10.1608C12.1744 10.9233 12.5206 11.7658 12.5814 11.8878C12.6725 12.07 12.7331 12.2825 12.6118 12.5255C12.5936 12.562 12.5767 12.5964 12.5606 12.6293C12.4694 12.8152 12.4025 12.9521 12.2477 13.1327C12.187 13.2038 12.1241 13.2803 12.0612 13.3569C11.936 13.5094 11.8108 13.6619 11.7018 13.7705C11.5195 13.952 11.3298 14.149 11.5421 14.5134C11.7545 14.8778 12.4851 16.0699 13.5672 17.0351C14.7305 18.0726 15.7415 18.5112 16.254 18.7335C16.354 18.7769 16.4351 18.8121 16.4946 18.8418C16.8584 19.0242 17.0708 18.9936 17.2832 18.7508C17.4955 18.5078 18.1932 17.6878 18.4357 17.3235C18.6784 16.9591 18.9211 17.0199 19.2547 17.1412C19.5885 17.2628 21.3782 18.1434 21.7422 18.3255C21.8132 18.3611 21.8797 18.3933 21.9412 18.423Z" fill="#FDFDFD"/>
</svg>
