<svg width="116" height="206" viewBox="0 0 116 206" fill="none" xmlns="http://www.w3.org/2000/svg">
<path d="M28.6676 172.926C30.9352 175.455 31.3939 178.743 29.6922 180.268C27.9904 181.794 24.7726 180.98 22.505 178.45C20.2374 175.921 19.7787 172.634 21.4805 171.108C23.8964 168.502 26.4001 170.396 28.6676 172.926Z" fill="#FFB800"/>
<path d="M15.7694 171.995C18.1492 174.202 19.0572 177.465 17.5678 179.072C16.0784 180.678 13.8133 181 10.3758 177.813C7.89318 175.511 6.6161 172.852 8.57739 170.736C10.0668 169.13 13.2867 169.693 15.7694 171.995Z" fill="#FFB800"/>
<path d="M9.05822 192.335C12.0979 193.826 14.2836 196.976 13.2232 199.138C12.1628 201.3 8.25775 201.656 5.2181 200.166C2.17845 198.675 0.573977 195.714 1.6344 193.551C2.68482 190.351 6.01858 190.845 9.05822 192.335Z" fill="#FFB800"/>
<path d="M8.91021 180.374C11.6766 182.326 12.8325 185.448 11.4921 187.348C10.1516 189.248 6.82237 189.206 4.05598 187.255C1.28959 185.303 -0.502086 181.987 0.751297 179.707C1.46753 178.404 6.14383 178.422 8.91021 180.374Z" fill="#FFB800"/>
<path d="M27.7839 186.085C27.7839 186.085 20.0053 182.807 17.0634 185.98C14.3666 188.889 17.8747 196.175 17.8747 196.175C17.8747 196.175 17.5507 200.692 20.0018 202.964C23.2146 205.943 27.2516 205.752 32.4192 200.709C36.3458 196.474 36.9437 191.136 33.7308 188.157C30.518 185.178 27.7839 186.085 27.7839 186.085Z" fill="#FFB800"/>
<path d="M108.806 21.1814C107.83 24.4351 105.263 26.5402 103.074 25.8831C100.885 25.2261 99.9026 22.0558 100.879 18.8021C101.856 15.5484 104.422 13.4434 106.611 14.1004C110.094 14.8039 109.783 17.9277 108.806 21.1814Z" fill="#FFB800"/>
<path d="M102.877 9.68917C102.235 12.8702 99.9228 15.3463 97.7755 14.9127C95.6282 14.479 94.173 12.7137 95.101 8.11879C95.7712 4.80029 97.3748 2.32425 100.202 2.8953C102.35 3.32894 103.547 6.37066 102.877 9.68917Z" fill="#FFB800"/>
<path d="M82.0204 14.5646C82.3327 17.9357 80.7841 21.4429 78.386 21.6651C75.988 21.8873 73.6487 18.7403 73.3363 15.3692C73.024 11.9982 74.7148 9.08528 77.1128 8.86309C80.3916 8.09119 81.708 11.1936 82.0204 14.5646Z" fill="#FFB800"/>
<path d="M92.1512 8.20349C91.9277 11.5816 89.8657 14.1957 87.5454 14.0423C85.2251 13.8888 83.5253 11.0259 83.7487 7.64778C83.9721 4.26965 85.8679 1.01215 88.467 0.893277C89.9522 0.825348 92.3746 4.82537 92.1512 8.20349Z" fill="#FFB800"/>
<path d="M97.8855 26.8417C97.8855 26.8417 96.6283 18.4947 92.3868 17.6382C88.4989 16.853 84.1091 23.6451 84.1091 23.6451C84.1091 23.6451 80.0859 25.7229 79.4243 28.9993C78.557 33.2938 80.8243 36.6394 87.8219 38.4204C93.4829 39.5637 98.3503 37.2912 99.2176 32.9966C100.085 28.7021 97.8855 26.8417 97.8855 26.8417Z" fill="#FFB800"/>
<path d="M114.277 149.196C113.3 152.45 110.734 154.555 108.545 153.898C106.356 153.241 105.373 150.07 106.35 146.817C107.327 143.563 109.893 141.458 112.082 142.115C115.565 142.818 115.254 145.942 114.277 149.196Z" fill="#FFB800"/>
<path d="M108.348 137.703C107.705 140.885 105.394 143.361 103.246 142.927C101.099 142.493 99.6439 140.728 100.572 136.133C101.242 132.815 102.846 130.339 105.673 130.91C107.821 131.343 109.018 134.385 108.348 137.703Z" fill="#FFB800"/>
<path d="M87.4912 142.579C87.8036 145.95 86.2549 149.457 83.8568 149.68C81.4588 149.902 79.1195 146.755 78.8072 143.384C78.4948 140.013 80.1856 137.1 82.5836 136.877C85.8624 136.106 87.1789 139.208 87.4912 142.579Z" fill="#FFB800"/>
<path d="M97.6219 136.218C97.3984 139.596 95.3364 142.21 93.0161 142.057C90.6958 141.903 88.996 139.04 89.2194 135.662C89.4428 132.284 91.3386 129.026 93.9377 128.908C95.4229 128.84 97.8453 132.84 97.6219 136.218Z" fill="#FFB800"/>
<path d="M103.356 154.856C103.356 154.856 102.099 146.509 97.8577 145.653C93.9697 144.867 89.58 151.66 89.58 151.66C89.58 151.66 85.5568 153.737 84.8951 157.014C84.0278 161.308 86.2951 164.654 93.2927 166.435C98.9538 167.578 103.821 165.306 104.688 161.011C105.556 156.717 103.356 154.856 103.356 154.856Z" fill="#FFB800"/>
<path d="M48.936 80.4399C49.6787 83.7548 48.4728 86.8472 46.2426 87.3468C44.0124 87.8464 41.6025 85.5642 40.8598 82.2492C40.1172 78.9343 41.323 75.842 43.5532 75.3423C46.9343 74.2492 48.1934 77.125 48.936 80.4399Z" fill="#FFB800"/>
<path d="M38.1366 73.3262C39.135 76.4141 38.3327 79.7053 36.2484 80.3792C34.164 81.0531 32.0305 80.2271 30.5884 75.7668C29.5469 72.5455 29.7318 69.6013 32.4766 68.7138C34.561 68.0399 37.095 70.1049 38.1366 73.3262Z" fill="#FFB800"/>
<path d="M22.3433 87.7942C24.2671 90.58 24.6353 94.3963 22.6536 95.7648C20.6719 97.1333 17.0908 95.5359 15.167 92.7501C13.2431 89.9644 13.29 86.5966 15.2717 85.2281C17.7519 82.9489 20.4194 85.0085 22.3433 87.7942Z" fill="#FFB800"/>
<path d="M28.0584 77.2856C29.5186 80.34 29.0017 83.6291 26.9037 84.6321C24.8058 85.6351 21.9213 83.972 20.4611 80.9176C19.0009 77.8632 19.0577 74.0946 21.2653 72.7177C22.5267 71.9309 26.5982 74.2312 28.0584 77.2856Z" fill="#FFB800"/>
<path d="M41.7356 91.4897C41.7356 91.4897 36.5502 84.829 32.433 86.1602C28.6589 87.3805 28.1597 95.4523 28.1597 95.4523C28.1597 95.4523 25.6703 99.2346 26.6986 102.415C28.0465 106.584 31.6621 108.39 38.635 106.514C44.1302 104.737 47.2601 100.372 45.9122 96.2028C44.5643 92.034 41.7356 91.4897 41.7356 91.4897Z" fill="#FFB800"/>
</svg>
