<svg width="127" height="20" viewBox="0 0 127 20" fill="none" xmlns="http://www.w3.org/2000/svg">
<path d="M125.232 17.1799C125.232 17.3293 125.251 17.4973 125.288 17.6839C125.326 17.8519 125.382 18.0106 125.456 18.1599C125.55 18.3093 125.643 18.4399 125.736 18.5519C125.848 18.6639 125.979 18.7199 126.128 18.7199V18.9999H122.516V18.7199C122.647 18.7199 122.768 18.6639 122.88 18.5519C122.992 18.4399 123.086 18.3093 123.16 18.1599C123.254 18.0106 123.319 17.8519 123.356 17.6839C123.394 17.4973 123.412 17.3293 123.412 17.1799V11.9719C123.412 11.2999 123.319 10.7119 123.132 10.2079C122.946 9.70395 122.694 9.28395 122.376 8.94795C122.059 8.61195 121.695 8.36928 121.284 8.21995C120.892 8.05195 120.491 7.96795 120.08 7.96795C119.67 7.96795 119.259 8.05195 118.848 8.21995C118.456 8.38795 118.102 8.61195 117.784 8.89194C117.486 9.15328 117.234 9.47061 117.028 9.84395C116.842 10.1986 116.748 10.5719 116.748 10.9639V17.1799C116.748 17.3293 116.767 17.4973 116.804 17.6839C116.842 17.8519 116.898 18.0106 116.972 18.1599C117.066 18.3093 117.159 18.4399 117.252 18.5519C117.364 18.6639 117.495 18.7199 117.644 18.7199V18.9999H114.004V18.7199C114.135 18.7199 114.256 18.6639 114.368 18.5519C114.48 18.4399 114.574 18.3093 114.648 18.1599C114.742 18.0106 114.807 17.8519 114.844 17.6839C114.882 17.4973 114.9 17.3293 114.9 17.1799V9.45195C114.9 9.13461 114.854 8.83595 114.76 8.55595C114.667 8.25728 114.396 8.09861 113.948 8.07995V7.82795L116.748 6.93195V8.47195C116.879 8.32261 117.047 8.16395 117.252 7.99595C117.458 7.80928 117.7 7.64128 117.98 7.49195C118.279 7.32395 118.615 7.19328 118.988 7.09995C119.38 6.98795 119.838 6.93195 120.36 6.93195C121.238 6.93195 121.984 7.08128 122.6 7.37995C123.216 7.67861 123.72 8.07061 124.112 8.55595C124.504 9.02261 124.784 9.54528 124.952 10.1239C125.139 10.6839 125.232 11.2346 125.232 11.7759V17.1799Z" fill="black"/>
<path d="M105.76 19.1959C104.827 19.1959 103.987 19.0466 103.24 18.7479C102.494 18.4306 101.85 18.0106 101.308 17.4879C100.786 16.9466 100.375 16.3119 100.076 15.5839C99.7962 14.8559 99.6562 14.0626 99.6562 13.2039C99.6562 12.2893 99.8149 11.4586 100.132 10.7119C100.45 9.94661 100.888 9.29328 101.448 8.75195C102.008 8.21061 102.671 7.79061 103.436 7.49195C104.202 7.19328 105.032 7.04395 105.928 7.04395C106.824 7.04395 107.646 7.19328 108.392 7.49195C109.139 7.77195 109.783 8.17328 110.324 8.69595C110.866 9.21861 111.286 9.84395 111.584 10.5719C111.883 11.2813 112.032 12.0653 112.032 12.9239C112.032 13.7266 111.892 14.5106 111.612 15.2759C111.351 16.0226 110.95 16.6853 110.408 17.2639C109.886 17.8426 109.232 18.3093 108.448 18.6639C107.683 19.0186 106.787 19.1959 105.76 19.1959ZM105.592 7.96795C104.92 8.00528 104.323 8.17328 103.8 8.47195C103.296 8.75195 102.867 9.12528 102.512 9.59195C102.176 10.0399 101.915 10.5533 101.728 11.1319C101.56 11.7106 101.476 12.2986 101.476 12.8959C101.476 13.5866 101.579 14.2586 101.784 14.9119C102.008 15.5466 102.316 16.1159 102.708 16.6199C103.119 17.1239 103.604 17.5253 104.164 17.8239C104.724 18.1226 105.35 18.2719 106.04 18.2719C106.731 18.2719 107.338 18.1226 107.86 17.8239C108.402 17.5253 108.85 17.1426 109.204 16.6759C109.559 16.1906 109.82 15.6493 109.988 15.0519C110.175 14.4546 110.268 13.8573 110.268 13.2599C110.268 12.6439 110.175 12.0279 109.988 11.4119C109.802 10.7773 109.512 10.2079 109.12 9.70395C108.728 9.18128 108.234 8.76128 107.636 8.44395C107.058 8.12661 106.376 7.96795 105.592 7.96795Z" fill="black"/>
<path d="M93.805 18.9999V18.7199C93.9544 18.7199 94.085 18.6639 94.197 18.5519C94.309 18.4399 94.4024 18.3093 94.477 18.1599C94.5517 18.0106 94.6077 17.8519 94.645 17.6839C94.6824 17.4973 94.701 17.3293 94.701 17.1799V9.42395C94.701 9.10661 94.6544 8.80795 94.561 8.52795C94.4677 8.22928 94.197 8.07061 93.749 8.05195V7.79995L96.549 6.90395V17.1799C96.549 17.3293 96.5677 17.4973 96.605 17.6839C96.6424 17.8519 96.6984 18.0106 96.773 18.1599C96.8477 18.3093 96.941 18.4399 97.053 18.5519C97.165 18.6639 97.2957 18.7199 97.445 18.7199V18.9999H93.805ZM93.945 4.21595C93.945 3.84261 94.0664 3.52528 94.309 3.26395C94.5704 3.00262 94.8877 2.87195 95.261 2.87195C95.6344 2.87195 95.9517 3.00262 96.213 3.26395C96.4744 3.52528 96.605 3.84261 96.605 4.21595C96.605 4.58928 96.4744 4.89728 96.213 5.13995C95.9517 5.38261 95.6344 5.50395 95.261 5.50395C94.8877 5.50395 94.5704 5.38261 94.309 5.13995C94.0664 4.89728 93.945 4.58928 93.945 4.21595Z" fill="black"/>
<path d="M80.9573 18.72H81.0973C81.2466 18.72 81.3773 18.6733 81.4893 18.58C81.6013 18.468 81.6946 18.3373 81.7693 18.188C81.8626 18.0386 81.9279 17.88 81.9653 17.712C82.0213 17.544 82.0493 17.3853 82.0493 17.236V2.25596C82.0493 2.12529 82.0213 1.97596 81.9653 1.80796C81.9279 1.63996 81.8626 1.48129 81.7693 1.33196C81.6946 1.18263 81.6013 1.06129 81.4893 0.967958C81.3773 0.855959 81.2466 0.799959 81.0973 0.799959H80.9573V0.519958H84.9893V0.799959H84.8493C84.6999 0.799959 84.5693 0.855959 84.4573 0.967958C84.3453 1.06129 84.2519 1.18263 84.1773 1.33196C84.1026 1.48129 84.0373 1.63996 83.9813 1.80796C83.9439 1.97596 83.9253 2.12529 83.9253 2.25596V17.964H90.0573C90.4119 17.964 90.7199 17.88 90.9813 17.712C91.2426 17.544 91.4573 17.3386 91.6253 17.096C91.8119 16.8346 91.9426 16.564 92.0173 16.284C92.1106 15.9853 92.1573 15.7146 92.1573 15.472H92.4373V19H80.9573V18.72Z" fill="black"/>
<path d="M69.3524 19V17.768C69.035 18.1227 68.6057 18.4493 68.0644 18.748C67.5417 19.0467 66.879 19.196 66.0764 19.196C65.087 19.196 64.219 19.028 63.4724 18.692C62.7444 18.3373 62.1377 17.88 61.6524 17.32C61.167 16.76 60.803 16.1253 60.5604 15.416C60.3364 14.688 60.2244 13.9413 60.2244 13.176C60.2244 12.4293 60.3457 11.692 60.5884 10.964C60.831 10.2173 61.195 9.55466 61.6804 8.97599C62.1657 8.39732 62.7724 7.93066 63.5004 7.57599C64.2284 7.22132 65.0684 7.04399 66.0204 7.04399C66.655 7.04399 67.2804 7.16532 67.8964 7.40799C68.5124 7.63199 68.9977 7.93066 69.3524 8.30399V2.84399C69.3524 2.52666 69.3057 2.22799 69.2124 1.94799C69.119 1.66799 68.8484 1.51866 68.4004 1.49999V1.21999L71.2004 0.35199V17.18C71.2004 17.3293 71.219 17.4973 71.2564 17.684C71.2937 17.852 71.3497 18.0107 71.4244 18.16C71.499 18.3093 71.5924 18.44 71.7044 18.552C71.8164 18.664 71.947 18.72 72.0964 18.72V19H69.3524ZM66.2724 18.272C66.6644 18.272 67.047 18.1973 67.4204 18.048C67.7937 17.88 68.1204 17.6653 68.4004 17.404C68.6804 17.124 68.9044 16.8067 69.0724 16.452C69.259 16.0787 69.3524 15.6773 69.3524 15.248V11.412C69.3524 10.8893 69.2404 10.4227 69.0164 10.012C68.7924 9.58266 68.5124 9.21866 68.1764 8.91999C67.8404 8.62132 67.467 8.39732 67.0564 8.24799C66.6644 8.07999 66.2817 7.99599 65.9084 7.99599C65.2924 7.99599 64.7417 8.14532 64.2564 8.44399C63.771 8.72399 63.3604 9.09732 63.0244 9.56399C62.6884 10.012 62.4364 10.5253 62.2684 11.104C62.1004 11.664 62.0164 12.224 62.0164 12.784C62.0164 13.4373 62.1097 14.0907 62.2964 14.744C62.483 15.3787 62.7537 15.9573 63.1084 16.48C63.4817 16.984 63.9297 17.404 64.4524 17.74C64.975 18.076 65.5817 18.2533 66.2724 18.272Z" fill="black"/>
<path d="M54.64 19V18.72C54.7893 18.72 54.92 18.664 55.032 18.552C55.144 18.44 55.2373 18.3093 55.312 18.16C55.4053 18.0107 55.4707 17.852 55.508 17.684C55.5453 17.4973 55.564 17.3293 55.564 17.18V2.84399C55.564 2.52666 55.5173 2.22799 55.424 1.94799C55.3307 1.66799 55.0507 1.51866 54.584 1.49999V1.21999L57.412 0.35199V17.18C57.412 17.3293 57.4306 17.4973 57.468 17.684C57.5053 17.852 57.5613 18.0107 57.636 18.16C57.7293 18.3093 57.8226 18.44 57.916 18.552C58.028 18.664 58.1586 18.72 58.308 18.72V19H54.64Z" fill="black"/>
<path d="M46.3118 19.1959C45.3784 19.1959 44.5384 19.0466 43.7918 18.7479C43.0451 18.4306 42.4011 18.0106 41.8598 17.4879C41.3371 16.9466 40.9264 16.3119 40.6278 15.5839C40.3478 14.8559 40.2078 14.0626 40.2078 13.2039C40.2078 12.2893 40.3664 11.4586 40.6838 10.7119C41.0011 9.94661 41.4398 9.29328 41.9998 8.75195C42.5598 8.21061 43.2224 7.79061 43.9878 7.49195C44.7531 7.19328 45.5838 7.04395 46.4798 7.04395C47.3758 7.04395 48.1971 7.19328 48.9438 7.49195C49.6904 7.77195 50.3344 8.17328 50.8758 8.69595C51.4171 9.21861 51.8371 9.84395 52.1358 10.5719C52.4344 11.2813 52.5838 12.0653 52.5838 12.9239C52.5838 13.7266 52.4438 14.5106 52.1638 15.2759C51.9024 16.0226 51.5011 16.6853 50.9598 17.2639C50.4371 17.8426 49.7838 18.3093 48.9998 18.6639C48.2344 19.0186 47.3384 19.1959 46.3118 19.1959ZM46.1438 7.96795C45.4718 8.00528 44.8744 8.17328 44.3518 8.47195C43.8478 8.75195 43.4184 9.12528 43.0638 9.59195C42.7278 10.0399 42.4664 10.5533 42.2798 11.1319C42.1118 11.7106 42.0278 12.2986 42.0278 12.8959C42.0278 13.5866 42.1304 14.2586 42.3358 14.9119C42.5598 15.5466 42.8678 16.1159 43.2598 16.6199C43.6704 17.1239 44.1558 17.5253 44.7158 17.8239C45.2758 18.1226 45.9011 18.2719 46.5918 18.2719C47.2824 18.2719 47.8891 18.1226 48.4118 17.8239C48.9531 17.5253 49.4011 17.1426 49.7558 16.6759C50.1104 16.1906 50.3718 15.6493 50.5398 15.0519C50.7264 14.4546 50.8198 13.8573 50.8198 13.2599C50.8198 12.6439 50.7264 12.0279 50.5398 11.4119C50.3531 10.7773 50.0638 10.2079 49.6718 9.70395C49.2798 9.18128 48.7851 8.76128 48.1878 8.44395C47.6091 8.12661 46.9278 7.96795 46.1438 7.96795Z" fill="black"/>
<path d="M37.3453 17.1799C37.3453 17.3293 37.3639 17.4973 37.4013 17.6839C37.4386 17.8519 37.4946 18.0106 37.5693 18.1599C37.6626 18.3093 37.7559 18.4399 37.8493 18.5519C37.9613 18.6639 38.0919 18.7199 38.2413 18.7199V18.9999H34.6293V18.7199C34.7599 18.7199 34.8813 18.6639 34.9933 18.5519C35.1053 18.4399 35.1986 18.3093 35.2733 18.1599C35.3666 18.0106 35.4319 17.8519 35.4693 17.6839C35.5066 17.4973 35.5253 17.3293 35.5253 17.1799V11.9719C35.5253 11.2999 35.4319 10.7119 35.2453 10.2079C35.0586 9.70395 34.8066 9.28395 34.4893 8.94795C34.1719 8.61195 33.8079 8.36928 33.3973 8.21995C33.0053 8.05195 32.6039 7.96795 32.1933 7.96795C31.7826 7.96795 31.3719 8.05195 30.9613 8.21995C30.5693 8.38795 30.2146 8.61195 29.8973 8.89194C29.5986 9.15328 29.3466 9.47061 29.1413 9.84395C28.9546 10.1986 28.8613 10.5719 28.8613 10.9639V17.1799C28.8613 17.3293 28.8799 17.4973 28.9173 17.6839C28.9546 17.8519 29.0106 18.0106 29.0853 18.1599C29.1786 18.3093 29.2719 18.4399 29.3653 18.5519C29.4773 18.6639 29.6079 18.7199 29.7573 18.7199V18.9999H26.1173V18.7199C26.2479 18.7199 26.3693 18.6639 26.4813 18.5519C26.5933 18.4399 26.6866 18.3093 26.7613 18.1599C26.8546 18.0106 26.9199 17.8519 26.9573 17.6839C26.9946 17.4973 27.0133 17.3293 27.0133 17.1799V9.45195C27.0133 9.13461 26.9666 8.83595 26.8733 8.55595C26.7799 8.25728 26.5093 8.09861 26.0613 8.07995V7.82795L28.8613 6.93195V8.47195C28.9919 8.32261 29.1599 8.16395 29.3653 7.99595C29.5706 7.80928 29.8133 7.64128 30.0933 7.49195C30.3919 7.32395 30.7279 7.19328 31.1013 7.09995C31.4933 6.98795 31.9506 6.93195 32.4733 6.93195C33.3506 6.93195 34.0973 7.08128 34.7133 7.37995C35.3293 7.67861 35.8333 8.07061 36.2253 8.55595C36.6173 9.02261 36.8973 9.54528 37.0653 10.1239C37.2519 10.6839 37.3453 11.2346 37.3453 11.7759V17.1799Z" fill="black"/>
<path d="M24.0476 9.28395C23.8236 8.91061 23.5903 8.67728 23.3476 8.58395C23.1049 8.49061 22.8249 8.44395 22.5076 8.44395C22.3023 8.44395 22.0783 8.49061 21.8356 8.58395C21.6116 8.67728 21.3876 8.79861 21.1636 8.94795C20.9396 9.09728 20.7156 9.26528 20.4916 9.45195C20.2863 9.61995 20.1089 9.77861 19.9596 9.92795V17.2079C19.9596 17.3573 19.9783 17.5159 20.0156 17.6839C20.0529 17.8519 20.1089 18.0199 20.1836 18.1879C20.2769 18.3373 20.3703 18.4679 20.4636 18.5799C20.5756 18.6733 20.7063 18.7199 20.8556 18.7199V18.9999H17.2156V18.7199C17.3463 18.7199 17.4676 18.6733 17.5796 18.5799C17.6916 18.4679 17.7849 18.3373 17.8596 18.1879C17.9529 18.0199 18.0183 17.8519 18.0556 17.6839C18.0929 17.5159 18.1116 17.3573 18.1116 17.2079V9.39595C18.1116 9.13461 18.0276 8.87328 17.8596 8.61195C17.6916 8.35061 17.4489 8.18261 17.1316 8.10795V7.88395L19.9596 7.04395V8.72395C20.1276 8.51861 20.3049 8.32261 20.4916 8.13595C20.6783 7.93061 20.8836 7.75328 21.1076 7.60395C21.3503 7.43595 21.6116 7.30528 21.8916 7.21195C22.1716 7.09995 22.4983 7.04395 22.8716 7.04395C23.1329 7.04395 23.4689 7.09995 23.8796 7.21195C24.2903 7.32395 24.6263 7.44528 24.8876 7.57595L24.0476 9.28395Z" fill="black"/>
<path d="M11.9561 18.72H12.0961C12.5441 18.72 12.7681 18.5146 12.7681 18.104C12.7681 17.9546 12.7401 17.796 12.6841 17.628L10.1641 10.824H5.26409L2.82809 17.516C2.77209 17.6653 2.74409 17.8053 2.74409 17.936C2.74409 18.1786 2.80942 18.3746 2.94009 18.524C3.07076 18.6546 3.21076 18.72 3.36009 18.72H3.50009V19H0.39209V18.72H0.53209C0.774757 18.72 1.00809 18.58 1.23209 18.3C1.47476 18.0013 1.67076 17.656 1.82009 17.264L8.23209 0.18396L14.5041 17.096C14.6348 17.4693 14.8121 17.8333 15.0361 18.188C15.2788 18.5426 15.5868 18.72 15.9601 18.72H16.1001V19H11.9561V18.72ZM5.54409 9.87196H9.85609L7.70009 4.01996L5.54409 9.87196Z" fill="black"/>
</svg>
