<svg width="30" height="30" viewBox="0 0 30 30" fill="none" xmlns="http://www.w3.org/2000/svg">
<path fill-rule="evenodd" clip-rule="evenodd" d="M12.8182 1.80671C14.7958 3.64026 15.5503 6.35225 14.3127 7.68717C13.075 9.02209 11.1927 9.28934 8.33617 6.64087C6.27312 4.7281 5.21186 2.51829 6.84169 0.760409C8.07937 -0.574508 10.7551 -0.106065 12.8182 1.80671ZM23.5369 2.58008C25.4213 4.68209 25.8024 7.41381 24.3883 8.68154C22.9741 9.94928 20.3001 9.27297 18.4158 7.17096C16.5314 5.06895 16.1502 2.33723 17.5644 1.0695C19.5721 -1.09586 21.6525 0.478076 23.5369 2.58008ZM10.7025 24.3623C11.5837 22.5655 9.76738 19.9479 7.24144 18.7092C4.7155 17.4704 1.94516 17.0601 1.07226 19.7197C0.191059 21.5165 1.52437 23.9773 4.05031 25.2161C6.57625 26.4549 9.82133 26.1591 10.7025 24.3623ZM7.11841 8.76937C9.41727 10.3911 10.3779 12.9859 9.26393 14.5648C8.15002 16.1438 5.38341 16.1091 3.08455 14.4874C0.785693 12.8656 -0.703183 10.1101 0.338374 8.21542C0.933558 7.13275 4.81955 7.1476 7.11841 8.76937ZM13.8941 13.428C16.3388 10.7911 22.8028 13.5153 22.8028 13.5153C22.8028 13.5153 25.0748 12.7614 27.7446 15.2368C30.4145 17.7121 29.9177 22.1483 26.6547 25.6677C22.3604 29.8586 19.0057 30.0173 16.3359 27.5419C14.299 25.6534 14.5683 21.9003 14.5683 21.9003C14.5683 21.9003 11.653 15.845 13.8941 13.428Z" fill="#FFB800"/>
</svg>
