<svg width="106" height="17" viewBox="0 0 106 17" fill="none" xmlns="http://www.w3.org/2000/svg">
<path fill-rule="evenodd" clip-rule="evenodd" d="M7.15232 1.07822C8.2558 2.10131 8.67682 3.61455 7.98622 4.35941C7.29562 5.10427 6.24534 5.2534 4.65144 3.7756C3.50029 2.70831 2.90813 1.47527 3.81754 0.494405C4.50814 -0.250455 6.00118 0.0109278 7.15232 1.07822ZM13.1332 1.50975C14.1846 2.68264 14.3973 4.20688 13.6082 4.91426C12.8192 5.62163 11.3271 5.24426 10.2757 4.07138C9.22424 2.8985 9.01155 1.37425 9.80063 0.666872C10.9209 -0.541362 12.0817 0.336868 13.1332 1.50975ZM5.97183 13.6638C6.46352 12.6612 5.45002 11.2007 4.0406 10.5095C2.63117 9.81828 1.08537 9.58933 0.598305 11.0733C0.106607 12.0759 0.850574 13.449 2.26 14.1403C3.66943 14.8315 5.48013 14.6664 5.97183 13.6638ZM3.97195 4.96326C5.25467 5.86818 5.79066 7.31599 5.16911 8.19703C4.54756 9.07808 3.00385 9.05872 1.72113 8.15381C0.438403 7.24889 -0.392364 5.71136 0.188807 4.65417C0.520909 4.05006 2.68922 4.05835 3.97195 4.96326ZM7.75264 7.56267C9.11676 6.09138 12.7236 7.6114 12.7236 7.6114C12.7236 7.6114 13.9913 7.19077 15.481 8.57197C16.9707 9.95317 16.6935 12.4285 14.8728 14.3922C12.4767 16.7307 10.6048 16.8192 9.11512 15.438C7.97856 14.3843 8.12884 12.2901 8.12884 12.2901C8.12884 12.2901 6.5022 8.91136 7.75264 7.56267Z" fill="#C1C1C1"/>
<path d="M103.986 2.08712C103.986 2.22837 103.95 2.61682 103.88 3.25245C103.724 4.80621 103.647 6.38116 103.647 7.9773C103.647 9.37569 103.668 10.4421 103.71 11.1766C103.753 11.9111 103.859 12.4762 104.028 12.8717C104.198 13.253 104.459 13.4437 104.812 13.4437C105.49 13.4437 105.829 13.6697 105.829 14.1217C105.829 14.4184 105.681 14.6726 105.384 14.8845C105.087 15.0822 104.763 15.1811 104.409 15.1811C103.986 15.1811 103.59 15.0822 103.223 14.8845C102.856 14.6867 102.566 14.383 102.354 13.9734C102.058 14.4113 101.627 14.7644 101.062 15.0328C100.511 15.2871 99.9742 15.4142 99.4515 15.4142C98.6464 15.4142 97.9331 15.2447 97.3116 14.9057C96.6901 14.5667 96.2098 14.1076 95.8708 13.5285C95.5318 12.9352 95.3623 12.2855 95.3623 11.5792C95.3623 10.9012 95.44 10.2514 95.5954 9.62994C95.7649 8.99431 95.9909 8.47168 96.2734 8.06205C96.6548 7.5253 97.1633 7.10154 97.7989 6.79079C98.4486 6.46591 99.0843 6.30347 99.7058 6.30347C100.087 6.30347 100.447 6.38116 100.786 6.53654C101.125 6.67779 101.422 6.85435 101.676 7.06623C101.676 6.11985 101.669 5.52659 101.655 5.28646V4.84152C101.655 3.52788 101.74 2.56738 101.909 1.96C102.065 1.36674 102.439 1.07011 103.032 1.07011C103.357 1.07011 103.597 1.14074 103.753 1.28199C103.908 1.42324 103.986 1.69162 103.986 2.08712ZM97.4599 11.5368C97.4599 12.1866 97.6435 12.7092 98.0108 13.1047C98.3921 13.5002 98.8441 13.698 99.3668 13.698C100.115 13.698 100.666 13.4649 101.019 12.9988C101.387 12.5327 101.57 11.9323 101.57 11.1978L101.549 9.10025C100.998 8.49287 100.426 8.18918 99.8329 8.18918C99.4233 8.18918 99.0348 8.29512 98.6676 8.50699C98.3145 8.70474 98.032 9.00844 97.8201 9.41806C97.5799 9.88419 97.4599 10.5904 97.4599 11.5368Z" fill="#C1C1C1"/>
<path d="M85.1411 10.5622C85.1411 10.0537 85.2329 9.5805 85.4166 9.14262C85.6002 8.69062 85.8686 8.22449 86.2217 7.74423C86.5748 7.26398 87.0621 6.88966 87.6836 6.62129C88.3051 6.33878 88.9831 6.19753 89.7177 6.19753C90.2827 6.19753 90.8265 6.3176 91.3491 6.55772C91.8859 6.78372 92.3661 7.06623 92.7899 7.40523C92.8464 7.50411 92.9452 7.68773 93.0865 7.95611C93.2277 8.21036 93.3266 8.44343 93.3831 8.6553C93.4538 8.86718 93.4891 9.08612 93.4891 9.31212C93.4891 10.2585 93.143 10.8941 92.4509 11.219C91.7587 11.5298 90.883 11.6851 89.8236 11.6851C88.7642 11.6851 87.9026 11.6145 87.2387 11.4733C87.2669 11.7416 87.3376 12.01 87.4506 12.2784C87.5636 12.5468 87.6978 12.7516 87.8531 12.8928C88.1356 13.1612 88.4111 13.3378 88.6795 13.4225C88.962 13.4932 89.3363 13.5285 89.8024 13.5285C90.5087 13.5285 91.0595 13.3943 91.455 13.1259C91.8223 12.8858 92.1048 12.7657 92.3026 12.7657C92.5709 12.7657 92.7757 12.8505 92.917 13.02C93.0582 13.1753 93.1289 13.3802 93.1289 13.6344C93.1289 14.1712 92.7828 14.609 92.0907 14.948C91.4127 15.287 90.6428 15.4566 89.7812 15.4566C89.1032 15.4566 88.4323 15.3365 87.7684 15.0964C87.1045 14.8562 86.5748 14.5172 86.1793 14.0794C85.9109 13.6273 85.6708 13.0765 85.4589 12.4267C85.2471 11.777 85.1411 11.1555 85.1411 10.5622ZM89.8024 7.93492C89.4917 7.93492 89.1668 7.99142 88.8278 8.10442C88.5029 8.2033 88.2486 8.35868 88.065 8.57055C87.839 8.81068 87.6695 9.02962 87.5565 9.22737C87.4576 9.42512 87.3941 9.67231 87.3658 9.96894C87.5212 9.96894 87.6695 9.976 87.8108 9.99013C87.952 10.0043 88.0862 10.0184 88.2133 10.0325C88.8348 10.089 89.301 10.1173 89.6117 10.1173C90.2332 10.1173 90.7064 10.0254 91.0313 9.84181C91.3703 9.65819 91.5398 9.411 91.5398 9.10024C91.5398 8.80362 91.3491 8.53524 90.9677 8.29511C90.6005 8.05499 90.212 7.93492 89.8024 7.93492Z" fill="#C1C1C1"/>
<path d="M80.4184 9.90538C80.4608 9.79238 80.6091 9.38275 80.8633 8.67649C81.1317 7.97023 81.3789 7.43348 81.6049 7.06623C81.9722 6.4871 82.297 6.19753 82.5795 6.19753C82.975 6.19753 83.2787 6.27522 83.4906 6.4306C83.7025 6.57185 83.8084 6.77666 83.8084 7.04504C83.8084 7.17217 83.7519 7.34873 83.6389 7.57473C83.54 7.80073 83.4835 7.93492 83.4694 7.9773C82.9044 9.22031 82.3959 10.5551 81.9439 11.9818L81.499 13.6344C81.3295 14.1712 81.0399 14.609 80.6303 14.948C80.2206 15.2729 79.7404 15.4354 79.1895 15.4354C78.6951 15.4354 78.2361 15.2094 77.8123 14.7574C77.5581 14.3619 77.2897 13.8604 77.0072 13.253C76.7388 12.6457 76.5057 12.0524 76.308 11.4733L75.5664 9.24856C75.411 8.81068 75.2839 8.43636 75.185 8.12561C75.1003 7.81486 75.0579 7.53236 75.0579 7.2781C75.0438 6.98148 75.1285 6.74135 75.3122 6.55772C75.4958 6.3741 75.75 6.28228 76.0749 6.28228C76.4422 6.28228 76.7035 6.35997 76.8589 6.51535C77.0142 6.6566 77.1555 6.8826 77.2826 7.19335C77.3391 7.51823 77.4945 8.18211 77.7487 9.185L77.8971 9.77825C78.0242 10.2585 78.1866 10.7458 78.3844 11.2402C78.5821 11.7346 78.7799 12.2078 78.9776 12.6598C78.9494 12.5892 79.0483 12.8222 79.2743 13.359C79.4155 12.9493 79.5779 12.4479 79.7616 11.8546L80.4184 9.90538Z" fill="#C1C1C1"/>
<path d="M67.6009 7.91374C67.2337 7.65948 67.05 7.39111 67.05 7.1086C67.05 6.91085 67.1348 6.72723 67.3043 6.55772C67.4738 6.38822 67.7281 6.30347 68.0671 6.30347C68.4626 6.30347 68.8157 6.40941 69.1264 6.62129C69.4513 6.81904 69.6773 7.1086 69.8044 7.48998C70.1293 7.1086 70.4966 6.80491 70.9062 6.57891C71.33 6.35291 71.7608 6.23991 72.1987 6.23991C72.7213 6.23991 73.1945 6.38116 73.6182 6.66366C74.042 6.94617 74.2539 7.32754 74.2539 7.8078C74.2539 8.07618 74.1338 8.35162 73.8937 8.63412C73.6677 8.91662 73.4346 9.05787 73.1945 9.05787C73.0673 9.05787 72.9543 9.02962 72.8555 8.97312C72.7707 8.90249 72.6648 8.80362 72.5377 8.67649C72.3964 8.53524 72.2763 8.43637 72.1775 8.37987C72.0786 8.30924 71.9656 8.27393 71.8385 8.27393C71.6125 8.27393 71.4006 8.30924 71.2028 8.37987C71.0051 8.45049 70.8709 8.53524 70.8003 8.63412C70.5743 8.98725 70.4048 9.30506 70.2918 9.58756C70.1929 9.87007 70.1435 10.1738 70.1435 10.4986C70.1435 10.7388 70.1364 10.9294 70.1223 11.0707L70.1011 12.2784C70.1011 12.462 70.1081 12.6668 70.1223 12.8928C70.1364 13.1188 70.1505 13.2883 70.1646 13.4013C70.207 13.7827 70.2282 14.15 70.2282 14.5031C70.2282 14.7432 70.1364 14.9551 69.9528 15.1387C69.7691 15.3224 69.5431 15.4142 69.2748 15.4142C68.851 15.4142 68.5402 15.3365 68.3425 15.1811C68.1447 15.0116 68.0459 14.7079 68.0459 14.27L68.0247 12.914C68.0106 12.6457 68.0035 12.2643 68.0035 11.7699L68.0247 10.3715C68.0529 9.6935 68.0671 9.14262 68.0671 8.71887C68.0671 8.56349 68.0317 8.42224 67.9611 8.29512C67.9046 8.16799 67.7846 8.04086 67.6009 7.91374Z" fill="#C1C1C1"/>
<path d="M57.2483 10.4986C57.2483 9.637 57.439 8.92368 57.8204 8.35868C58.2017 7.77955 58.7314 7.23573 59.4094 6.72722C59.6072 6.58597 59.9391 6.46591 60.4053 6.36703C60.8714 6.25403 61.281 6.19753 61.6341 6.19753C62.0579 6.19753 62.5028 6.28935 62.969 6.47297C63.4492 6.64247 63.8377 6.84023 64.1343 7.06623C64.6569 7.44761 65.0171 7.89255 65.2149 8.40105C65.4126 8.89543 65.5115 9.48869 65.5115 10.1808C65.5115 10.4774 65.342 10.767 65.003 11.0495C64.6781 11.3179 64.325 11.4521 63.9436 11.4521L63.1385 11.4309C62.7288 11.4309 62.1426 11.445 61.3799 11.4733L60.9349 11.4945C60.6242 11.5227 60.3911 11.5368 60.2358 11.5368C60.0098 11.5368 59.699 11.5086 59.3035 11.4521C59.36 12.116 59.6072 12.6386 60.0451 13.02C60.4829 13.3872 60.9561 13.5708 61.4646 13.5708C62.3545 13.5708 62.976 13.3943 63.3292 13.0412C63.6258 12.8293 63.8235 12.6951 63.9224 12.6386C64.0213 12.5821 64.1767 12.5538 64.3885 12.5538C64.6145 12.5538 64.8123 12.6598 64.9818 12.8717C65.1513 13.0835 65.236 13.2954 65.236 13.5073C65.236 13.7474 65.0877 13.9946 64.7911 14.2489C64.5086 14.489 64.1202 14.7432 63.6258 15.0116C63.3574 15.1246 62.9902 15.2235 62.524 15.3082C62.0579 15.393 61.6695 15.4354 61.3587 15.4354C60.8643 15.4354 60.3134 15.2941 59.7061 15.0116C59.0987 14.715 58.6467 14.3901 58.3501 14.037C58.0534 13.6838 57.7921 13.1824 57.5661 12.5326C57.3542 11.8829 57.2483 11.2049 57.2483 10.4986ZM61.4646 9.92656C62.4675 9.92656 63.202 9.89125 63.6682 9.82063C63.6399 9.411 63.5128 9.07906 63.2868 8.8248C63.0608 8.55643 62.75 8.33043 62.3545 8.1468C62.2274 8.0903 62.1144 8.04792 62.0155 8.01967C61.9166 7.99142 61.8036 7.9773 61.6765 7.9773C61.0268 7.9773 60.4759 8.15386 60.0239 8.50699C59.586 8.86012 59.3247 9.31212 59.2399 9.863C59.9462 9.90538 60.6878 9.92656 61.4646 9.92656Z" fill="#C1C1C1"/>
<path d="M53.9575 10.5834C54.0705 10.654 54.2895 10.7882 54.6143 10.9859C54.9533 11.1696 55.1793 11.3885 55.2923 11.6428C55.4053 11.897 55.4618 12.2501 55.4618 12.7022C55.4618 13.2107 55.3135 13.6627 55.0169 14.0582C54.7203 14.4395 54.3389 14.7362 53.8728 14.948C53.5338 15.1034 53.1171 15.2235 52.6227 15.3082C52.1424 15.393 51.7611 15.4354 51.4786 15.4354C51.1961 15.4354 50.8288 15.393 50.3768 15.3082C49.9389 15.2235 49.6352 15.1458 49.4657 15.0752C49.0279 14.8209 48.6465 14.5102 48.3216 14.1429C48.0108 13.7757 47.8555 13.4013 47.8555 13.02C47.8555 12.7375 47.9473 12.5185 48.1309 12.3631C48.3145 12.1936 48.5547 12.1089 48.8513 12.1089C48.9925 12.1089 49.1409 12.1654 49.2962 12.2784C49.4516 12.3773 49.5575 12.4832 49.614 12.5962C49.7694 12.9635 50.0307 13.2389 50.398 13.4225C50.7652 13.6062 51.1396 13.698 51.5209 13.698C52.0153 13.698 52.4744 13.6203 52.8981 13.4649C53.3219 13.2954 53.5338 13.0694 53.5338 12.7869C53.5338 12.6598 53.4985 12.5609 53.4278 12.4903C53.3713 12.4055 53.2866 12.3208 53.1736 12.236C52.9758 12.0948 52.6792 11.9818 52.2837 11.897C51.8882 11.7981 51.6339 11.7346 51.5209 11.7063C50.9418 11.5792 50.3768 11.3885 49.8259 11.1343C49.275 10.8659 48.8372 10.5481 48.5123 10.1808C48.1874 9.81356 48.025 9.34037 48.025 8.76124C48.025 8.37986 48.1662 7.98436 48.4487 7.57473C48.7312 7.15098 49.049 6.85435 49.4022 6.68485C49.6564 6.58597 50.0802 6.48003 50.6734 6.36703C51.2808 6.25403 51.6904 6.19753 51.9023 6.19753C52.2272 6.19753 52.5803 6.23285 52.9617 6.30347C53.3431 6.35997 53.6326 6.45885 53.8304 6.6001C54.2118 6.8261 54.5225 7.06623 54.7627 7.32048C55.0028 7.56061 55.1228 7.83605 55.1228 8.1468C55.1228 8.30218 55.0875 8.47168 55.0169 8.6553C54.9463 8.8248 54.8615 8.93074 54.7627 8.97312C54.5508 9.07199 54.3036 9.12143 54.0211 9.12143C53.894 9.12143 53.788 9.08612 53.7033 9.0155C53.6326 8.94487 53.5338 8.83187 53.4066 8.67649C53.2513 8.43636 53.103 8.29511 52.9617 8.25274C52.7922 8.21036 52.545 8.16092 52.2201 8.10442C51.8953 8.0338 51.6763 7.99849 51.5633 7.99849C51.2384 7.99849 50.8994 8.0903 50.5463 8.27393C50.2073 8.45755 50.0378 8.66943 50.0378 8.90956C50.0378 9.03668 50.0872 9.13556 50.1861 9.20618C50.2991 9.27681 50.4121 9.34037 50.5251 9.39687C50.6522 9.45337 50.737 9.48869 50.7794 9.50281C51.076 9.64406 51.4009 9.76413 51.754 9.863C52.1213 9.96188 52.3473 10.0254 52.432 10.0537C53.1948 10.2373 53.7033 10.4139 53.9575 10.5834Z" fill="#C1C1C1"/>
<path d="M37.7583 10.8588C37.7583 10.3221 37.8572 9.78531 38.0549 9.24856C38.2527 8.69768 38.514 8.19624 38.8389 7.74423C39.1638 7.29223 39.6793 6.92498 40.3856 6.64247C41.0918 6.34585 41.7204 6.19753 42.2713 6.19753C42.8363 6.19753 43.4084 6.27522 43.9875 6.4306C44.5807 6.58597 44.9904 6.8261 45.2164 7.15098C45.739 7.88548 46.0003 8.60587 46.0003 9.31212C46.0003 9.6935 45.9156 10.0184 45.7461 10.2868C45.5907 10.5551 45.3647 10.8447 45.0681 11.1555C44.8279 11.4097 44.4465 11.5792 43.9239 11.664C43.4154 11.7487 42.9069 11.7911 42.3984 11.7911C42.0735 11.7911 41.678 11.7628 41.2119 11.7063C40.7458 11.6357 40.2938 11.551 39.8559 11.4521C39.8841 11.7346 39.9548 12.01 40.0678 12.2784C40.1808 12.5468 40.3149 12.7516 40.4703 12.8928C40.7528 13.1612 41.0424 13.3307 41.339 13.4013C41.6498 13.472 42.0453 13.5073 42.5255 13.5073C43.034 13.5073 43.5072 13.4225 43.9451 13.253C44.2982 13.1259 44.5878 13.0623 44.8138 13.0623C45.0822 13.0623 45.287 13.1471 45.4282 13.3166C45.5695 13.472 45.6401 13.6768 45.6401 13.931C45.6401 14.2842 45.4353 14.5737 45.0257 14.7997C44.616 15.0257 44.1429 15.1952 43.6061 15.3082C43.0835 15.4071 42.6597 15.4566 42.3348 15.4566C41.671 15.4566 41.0283 15.3365 40.4068 15.0964C39.7853 14.8562 39.2697 14.5172 38.8601 14.0794C38.5211 13.6838 38.2527 13.2107 38.0549 12.6598C37.8572 12.0948 37.7583 11.4945 37.7583 10.8588ZM42.3772 7.99849C42.0665 7.99849 41.7557 8.06205 41.445 8.18917C41.1342 8.30218 40.88 8.46461 40.6822 8.67649C40.428 8.94487 40.2514 9.16381 40.1525 9.33331C40.0678 9.48869 40.0113 9.70763 39.983 9.99013C40.3361 10.1031 41.0706 10.1596 42.1865 10.1596C42.7939 10.1596 43.26 10.0678 43.5849 9.88419C43.9239 9.70056 44.0934 9.46044 44.0934 9.16381C44.0934 8.86718 43.9098 8.5988 43.5425 8.35868C43.1753 8.11855 42.7868 7.99849 42.3772 7.99849Z" fill="#C1C1C1"/>
<path d="M32.5323 9.73588C33.0267 10.5693 33.521 11.3108 34.0154 11.9606C34.5239 12.5962 35.1878 13.3802 36.0071 14.3124C36.1059 14.4113 36.1554 14.5243 36.1554 14.6514C36.1554 14.8492 36.0424 15.0187 35.8164 15.1599C35.6045 15.3012 35.3432 15.3718 35.0324 15.3718C34.5946 15.3718 34.1214 15.1882 33.6129 14.8209C33.1609 14.496 32.7583 14.0652 32.4052 13.5285C32.052 12.9917 31.6424 12.2925 31.1763 11.4309C30.809 10.767 30.5901 10.3786 30.5195 10.2656C29.9686 10.4916 29.1069 10.6328 27.9346 10.6893C27.9346 11.1696 27.9769 11.8193 28.0617 12.6386C28.1464 13.4861 28.1888 14.1005 28.1888 14.4819C28.1888 14.7362 28.0617 14.948 27.8074 15.1175C27.5673 15.287 27.2919 15.3718 26.9811 15.3718C26.6139 15.3718 26.3314 15.2235 26.1336 14.9269C25.9359 14.5314 25.8087 14.0582 25.7522 13.5073C25.6957 12.9564 25.6675 12.2996 25.6675 11.5368C25.6675 10.7317 25.7169 9.82063 25.8158 8.80362C25.9005 7.67361 25.9429 6.84023 25.9429 6.30347C25.9429 5.86559 25.9005 5.2794 25.8158 4.54489C25.8017 4.41777 25.7805 4.19883 25.7522 3.88807C25.724 3.57732 25.7099 3.29482 25.7099 3.04057C25.7099 2.84282 25.7805 2.67331 25.9217 2.53206C26.0771 2.37669 26.2395 2.27075 26.409 2.21425C27.5532 2.03062 28.6691 1.93881 29.7567 1.93881C31.6071 1.93881 33.1397 2.28487 34.3544 2.977C35.5692 3.66913 36.1766 4.72146 36.1766 6.13397C36.1766 6.57185 36.0777 6.9956 35.8799 7.40523C35.6963 7.80073 35.4421 8.13267 35.1172 8.40105C34.2556 9.06493 33.3939 9.50987 32.5323 9.73588ZM33.9519 6.07041C33.9519 5.3924 33.5917 4.84152 32.8713 4.41777C32.1509 3.97989 31.1268 3.76095 29.7991 3.76095C29.2058 3.76095 28.6196 3.83157 28.0405 3.97283L28.0617 5.0534C28.0617 5.6749 28.0405 6.28228 27.9981 6.87554C27.9558 7.46879 27.9346 8.10442 27.9346 8.78243C28.1747 8.72593 28.4289 8.69062 28.6973 8.67649C28.9657 8.64824 29.1423 8.62705 29.227 8.61293C29.8485 8.55643 30.3288 8.4858 30.6678 8.40105C31.3034 8.2033 31.826 8.02674 32.2357 7.87136C32.6594 7.70186 33.0479 7.46879 33.401 7.17217C33.7682 6.86141 33.9519 6.49416 33.9519 6.07041Z" fill="#C1C1C1"/>
</svg>
