<svg width="64" height="17" viewBox="0 0 64 17" fill="none" xmlns="http://www.w3.org/2000/svg">
<path fill-rule="evenodd" clip-rule="evenodd" d="M7.15232 1.00811C8.2558 2.0312 8.67682 3.54444 7.98622 4.2893C7.29562 5.03416 6.24534 5.18329 4.65144 3.70549C3.50029 2.6382 2.90813 1.40516 3.81754 0.424295C4.50814 -0.320565 6.00118 -0.0591826 7.15232 1.00811ZM13.1332 1.43964C14.1846 2.61252 14.3973 4.13677 13.6082 4.84415C12.8192 5.55152 11.3271 5.17415 10.2757 4.00127C9.22424 2.82838 9.01155 1.30414 9.80063 0.596762C10.9209 -0.611472 12.0817 0.266758 13.1332 1.43964ZM5.97183 13.5937C6.46352 12.5911 5.45002 11.1306 4.0406 10.4394C2.63117 9.74817 1.08537 9.51922 0.598305 11.0032C0.106607 12.0058 0.850574 13.3789 2.26 14.0701C3.66943 14.7614 5.48013 14.5963 5.97183 13.5937ZM3.97195 4.89315C5.25467 5.79807 5.79066 7.24588 5.16911 8.12692C4.54756 9.00797 3.00385 8.98861 1.72113 8.0837C0.438403 7.17878 -0.392364 5.64125 0.188807 4.58406C0.520909 3.97995 2.68922 3.98824 3.97195 4.89315ZM7.75264 7.49256C9.11676 6.02127 12.7236 7.54129 12.7236 7.54129C12.7236 7.54129 13.9913 7.12066 15.481 8.50186C16.9707 9.88306 16.6935 12.3584 14.8728 14.3221C12.4767 16.6606 10.6048 16.7491 9.11512 15.3679C7.97856 14.3141 8.12884 12.22 8.12884 12.22C8.12884 12.22 6.50219 8.84125 7.75264 7.49256Z" fill="#FF4D00"/>
<path d="M62.3235 14.8848C62.0352 14.8848 61.7607 14.8024 61.4999 14.6377C61.2529 14.4593 61.0333 14.274 60.8411 14.0819C60.649 13.876 60.5186 13.7387 60.4499 13.6701C60.1617 14.0819 59.7431 14.4181 59.1941 14.6789C58.645 14.9397 58.1166 15.0701 57.6088 15.0701C56.8264 15.0701 56.1333 14.9054 55.5294 14.576C54.9254 14.2466 54.4588 13.8005 54.1294 13.2377C53.8 12.6613 53.6353 12.023 53.6353 11.323C53.6353 10.6642 53.7107 10.0328 53.8617 9.42892C54.0264 8.81127 54.246 8.29657 54.5205 7.8848C54.8911 7.36324 55.3853 6.95147 56.0029 6.64951C56.6343 6.34755 57.2588 6.19657 57.8764 6.19657C58.247 6.19657 58.597 6.2652 58.9264 6.40245C59.2558 6.53971 59.5441 6.71128 59.7911 6.91716C59.7911 6.01128 59.7843 5.44167 59.7705 5.20834V4.7554C59.7705 3.46521 59.8529 2.52501 60.0176 1.93482C60.1686 1.35835 60.5392 1.07011 61.1294 1.07011C61.445 1.07011 61.6784 1.13874 61.8294 1.27599C61.9803 1.41325 62.0558 1.67403 62.0558 2.05834C62.0558 2.1956 62.0215 2.57305 61.9529 3.1907C61.8019 4.72795 61.7264 6.2652 61.7264 7.80245C61.7264 9.09265 61.747 10.0534 61.7882 10.6848C61.8431 11.3024 61.946 11.7966 62.097 12.1672C62.2617 12.5377 62.5156 12.8671 62.8588 13.1554C63.0646 13.3201 63.2088 13.4573 63.2911 13.5671C63.3872 13.6769 63.4352 13.8211 63.4352 13.9995C63.4352 14.2191 63.3254 14.425 63.1058 14.6171C62.8862 14.7956 62.6254 14.8848 62.3235 14.8848ZM57.547 13.4024C58.2745 13.4024 58.8098 13.176 59.1529 12.723C59.5098 12.2564 59.6882 11.6662 59.6882 10.9524L59.6676 9.79951C59.6539 9.5799 59.647 9.2848 59.647 8.91421C59.1392 8.31029 58.5901 8.00833 57.9999 8.00833C57.6019 8.00833 57.2245 8.11127 56.8676 8.31716C56.5245 8.52304 56.2431 8.825 56.0235 9.22304C55.7902 9.67598 55.6735 10.3623 55.6735 11.2819C55.6735 11.9132 55.8588 12.4279 56.2294 12.826C56.6 13.2103 57.0392 13.4024 57.547 13.4024Z" fill="#FF4D00"/>
<path d="M50.2755 11.7966C50.2755 12.3182 50.3509 12.7231 50.5019 13.0113C50.6666 13.2858 50.8725 13.4231 51.1196 13.4231C51.2568 13.4231 51.3872 13.4162 51.5107 13.4025C51.6343 13.375 51.7578 13.3613 51.8813 13.3613C52.0186 13.3613 52.1353 13.4299 52.2313 13.5672C52.3411 13.7044 52.396 13.8554 52.396 14.0201C52.396 14.3495 52.2382 14.6103 51.9225 14.8025C51.6206 14.9809 51.2088 15.0701 50.6872 15.0701C50.3166 15.0701 49.9392 14.9603 49.5549 14.7407C49.1843 14.5074 48.8755 14.1505 48.6284 13.6701C48.3813 13.176 48.2578 12.5652 48.2578 11.8378C48.2578 10.2731 48.2853 8.94855 48.3402 7.86424C48.4088 6.57405 48.4431 4.94758 48.4431 2.98484C48.4431 2.36719 48.4774 1.93484 48.546 1.68778C48.6284 1.49563 48.7588 1.35151 48.9372 1.25543C49.1294 1.14563 49.3284 1.09072 49.5343 1.09072C49.7402 1.09072 49.9186 1.12504 50.0696 1.19367C50.2343 1.26229 50.3441 1.3721 50.399 1.52308C50.4539 1.68778 50.4882 1.85249 50.5019 2.01719C50.5294 2.16817 50.5431 2.38778 50.5431 2.67602C50.5431 3.23876 50.5225 3.78092 50.4813 4.30248C50.4539 4.93386 50.4402 5.39366 50.4402 5.68189C50.3304 8.09757 50.2755 10.1358 50.2755 11.7966Z" fill="#FF4D00"/>
<path d="M45.5872 8.37891C45.697 8.57107 45.7862 8.85244 45.8548 9.22303C45.9234 9.57989 45.9578 9.90244 45.9578 10.1907C45.9578 10.726 45.8411 11.4877 45.6078 12.476C44.6607 14.2054 43.2607 15.0701 41.4078 15.0701C40.7215 15.0701 40.0215 14.8436 39.3078 14.3907C38.594 13.9377 38.0999 13.4162 37.8254 12.826C37.4548 11.6456 37.2695 10.8975 37.2695 10.5819C37.2695 10.0328 37.3862 9.4495 37.6195 8.83186C37.8666 8.21421 38.1754 7.67892 38.546 7.22598C38.7793 6.91029 39.198 6.64264 39.8019 6.42304C40.4058 6.1897 40.9548 6.07304 41.4489 6.07304C42.4097 6.07304 43.2264 6.25833 43.8989 6.62892C44.5715 6.98578 45.1342 7.56911 45.5872 8.37891ZM43.796 11.6936C43.8646 11.5152 43.8989 11.0554 43.8989 10.3142C43.8989 9.91617 43.8234 9.52499 43.6725 9.14068C43.5352 8.75637 43.3293 8.42695 43.0548 8.15244C43.0274 8.12499 42.9519 8.08382 42.8283 8.02892C42.7048 7.96029 42.5332 7.89852 42.3136 7.84362C42.1078 7.77499 41.8676 7.74068 41.5931 7.74068C40.8244 7.74068 40.2617 8.0495 39.9048 8.66715C39.548 9.2848 39.3695 9.98479 39.3695 10.7671C39.3695 10.9044 39.4038 11.1652 39.4725 11.5495C39.5548 11.9338 39.6234 12.174 39.6784 12.2701C39.7195 12.3662 39.8225 12.5034 39.9872 12.6818C40.1656 12.8466 40.3783 12.9975 40.6254 13.1348C40.8862 13.2583 41.1538 13.3201 41.4283 13.3201C42.046 13.3201 42.5401 13.176 42.9107 12.8877C43.2813 12.5858 43.5764 12.1877 43.796 11.6936Z" fill="#FF4D00"/>
<path d="M35.5086 11.2613C35.5086 11.9063 35.3577 12.4622 35.0557 12.9289C34.7675 13.3818 34.2871 13.8005 33.6145 14.1848C33.1616 14.4593 32.6332 14.6652 32.0292 14.8024C31.4253 14.9397 30.8145 15.0083 30.1969 15.0083C29.5655 15.0083 28.7832 14.8024 27.8498 14.3907C27.1773 14.0612 26.642 13.6701 26.244 13.2171C25.8596 12.7642 25.6675 12.2701 25.6675 11.7348C25.6675 11.3642 25.7498 11.0965 25.9145 10.9318C26.0792 10.7534 26.3469 10.6642 26.7175 10.6642C26.9096 10.6642 27.1087 10.7465 27.3145 10.9113C27.5204 11.0622 27.6439 11.2132 27.6851 11.3642C27.8773 11.9269 28.2136 12.3593 28.6939 12.6612C29.1743 12.9495 29.7714 13.0936 30.4851 13.0936C31.3086 13.0936 31.9949 12.9426 32.5439 12.6407C33.1067 12.3387 33.3881 11.9338 33.3881 11.426C33.3881 10.9318 33.0861 10.4926 32.4822 10.1083C31.8783 9.724 31.2606 9.45635 30.6292 9.30537C29.7234 9.05832 28.9204 8.76322 28.2204 8.42008C27.493 8.06322 26.9508 7.624 26.5939 7.10244C26.2371 6.58087 26.0587 6.03185 26.0587 5.45538C26.0587 4.92009 26.244 4.37793 26.6145 3.82891C26.9851 3.26617 27.4243 2.86127 27.9322 2.61421C28.2067 2.47695 28.6734 2.33284 29.3322 2.18186C30.0047 2.01715 30.492 1.9348 30.7939 1.9348C31.192 1.9348 31.6312 1.98284 32.1116 2.07892C32.592 2.17499 32.9832 2.31225 33.2851 2.49068C33.889 2.83382 34.3351 3.14264 34.6233 3.41715C34.9116 3.69166 35.0557 4.03479 35.0557 4.44656C35.0557 4.69362 34.9596 4.91322 34.7675 5.10538C34.589 5.29754 34.2733 5.39362 33.8204 5.39362C33.7106 5.39362 33.6008 5.34558 33.491 5.2495C33.3812 5.15342 33.2439 5.0093 33.0792 4.81715C32.8596 4.52891 32.6469 4.33676 32.441 4.24068C32.2351 4.17205 31.9332 4.09656 31.5351 4.01421C31.1508 3.93185 30.8077 3.89068 30.5057 3.89068C30.1763 3.89068 29.8332 3.9593 29.4763 4.09656C29.1194 4.23381 28.8175 4.43283 28.5704 4.69362C28.3371 4.94068 28.2204 5.22891 28.2204 5.55832C28.2204 5.83283 28.3439 6.07303 28.591 6.27891C28.8518 6.47107 29.1606 6.62891 29.5175 6.75244C29.9292 6.91714 30.3753 7.06126 30.8557 7.18479C31.4871 7.37695 32.0018 7.55538 32.3998 7.72008C32.8116 7.87106 33.2096 8.06322 33.5939 8.29655C34.2665 8.69459 34.7537 9.10635 35.0557 9.53184C35.3577 9.94361 35.5086 10.5201 35.5086 11.2613Z" fill="#FF4D00"/>
</svg>
